Coordinates
version=1
nRows=37
nColumns=38
inDegrees=no

Units are S.I. units (second, meters, Newtons, ...)
If the header above contains a line with 'inDegrees', this indicates whether rotational values are in degrees (yes) or radians (no).

endheader
time	pelvis_tilt	pelvis_list	pelvis_rotation	pelvis_tx	pelvis_ty	pelvis_tz	hip_flexion_r	hip_adduction_r	hip_rotation_r	knee_angle_r	ankle_angle_r	subtalar_angle_r	mtp_angle_r	hip_flexion_l	hip_adduction_l	hip_rotation_l	knee_angle_l	ankle_angle_l	subtalar_angle_l	mtp_angle_l	lumbar_extension	lumbar_bending	lumbar_rotation	arm_flex_r	arm_add_r	arm_rot_r	elbow_flex_r	pro_sup_r	wrist_flex_r	wrist_dev_r	arm_flex_l	arm_add_l	arm_rot_l	elbow_flex_l	pro_sup_l	wrist_flex_l	wrist_dev_l
0	-0.248328	1.36026	-1.3265	0.854022	1.70833	0.946903	-0.451626	0.0664426	-0.0714058	0.00211956	-0.190367	0	0	0.191094	-0.121629	-0.36021	0.392732	-0.196103	0	0	-0.391489	0.0248017	-0.115975	0.169821	-0.442758	1.25006	0.586494	0.31778	0	0	-0.279558	-0.361341	-0.000214048	0.917452	1.53166	0	0
0.01	-0.285466	1.35316	-1.27843	0.854394	1.6982	0.946455	-0.456467	0.118589	-0.226702	0	-0.376314	0	0	0.173243	-0.117777	-0.331726	0.3158	-0.196518	0	0	-0.394079	0.0353735	-0.118758	0.167636	-0.438163	1.25506	0.577218	0.30912	0	0	-0.275144	-0.364796	0.00623632	0.909165	1.53261	0	0
0.02	-0.304174	1.35682	-1.25748	0.855238	1.68836	0.944613	-0.459679	0.122026	-0.231239	0	-0.415142	0	0	0.170047	-0.1111	-0.322057	0.263145	-0.194289	0	0	-0.389202	0.0378734	-0.119958	0.166984	-0.438112	1.25623	0.574038	0.306612	0	0	-0.275357	-0.364932	0.00655939	0.904676	1.53148	0	0
0.03	-0.322144	1.40477	-1.25464	0.854084	1.67897	0.938223	-0.357933	0.0977689	-0.158008	0.100002	-0.160639	0	0	0.206439	-0.0885672	-0.293892	0.198188	-0.203286	0	0	-0.336774	0.0178637	-0.112141	0.166694	-0.423029	1.27723	0.546684	0.294881	0	0	-0.280398	-0.365937	0.00595047	0.894647	1.52978	0	0
0.04	-0.383172	1.38832	-1.18435	0.856811	1.66698	0.939661	-0.421091	0.110073	-0.177346	0.0699179	-0.154379	0	0	0.179649	-0.0958563	-0.278573	0.151992	-0.209967	0	0	-0.346983	0.0378817	-0.116468	0.166313	-0.420456	1.28438	0.530303	0.293216	0	0	-0.274165	-0.356815	0.00627405	0.875054	1.5371	0	0
0.05	-0.382495	1.3883	-1.18644	0.857329	1.65654	0.938416	-0.42868	0.105695	-0.181791	0.0841743	-0.150261	0	0	0.174469	-0.0930647	-0.274397	0.138661	-0.214445	0	0	-0.346407	0.0354096	-0.117538	0.166995	-0.419349	1.28864	0.527249	0.290897	0	0	-0.277506	-0.356354	0.000971982	0.872752	1.54048	0	0
0.06	-0.38006	1.38703	-1.19078	0.857891	1.64596	0.937529	-0.434236	0.101208	-0.185806	0.103208	-0.145363	0	0	0.173609	-0.0931731	-0.278199	0.152782	-0.216236	0	0	-0.347163	0.032923	-0.117959	0.167324	-0.417996	1.29189	0.523473	0.287974	0	0	-0.280306	-0.356108	-0.0037193	0.869795	1.54287	0	0
0.07	-0.376267	1.39712	-1.20261	0.859065	1.63575	0.935768	-0.444111	0.0619238	-0.069167	0.111342	-0.130066	0	0	0.188036	-0.0886231	-0.28887	0.187326	-0.214213	0	0	-0.337301	0.0260357	-0.113653	0.167586	-0.419008	1.29667	0.51933	0.284191	0	0	-0.280422	-0.352052	-0.00830685	0.86212	1.54738	0	0
0.08	-0.363038	1.3821	-1.21237	0.859241	1.62408	0.936541	-0.444756	0.0904201	-0.190515	0.146466	-0.137684	0	0	0.17423	-0.0952699	-0.296982	0.226588	-0.207439	0	0	-0.350702	0.0266791	-0.118013	0.167002	-0.415561	1.30136	0.515295	0.280865	0	0	-0.28629	-0.355099	-0.0139717	0.863433	1.54968	0	0
0.09	-0.344508	1.37865	-1.2328	0.860128	1.61276	0.936441	-0.45166	0.0834374	-0.192116	0.168855	-0.13798	0	0	0.169218	-0.0934684	-0.304458	0.260804	-0.199269	0	0	-0.353597	0.0225141	-0.117661	0.164943	-0.415443	1.30384	0.512498	0.278756	0	0	-0.288027	-0.355481	-0.0160727	0.859287	1.55149	0	0
0.1	-0.324378	1.37622	-1.25472	0.861171	1.60115	0.936444	-0.456508	0.0752702	-0.19164	0.192554	-0.140041	0	0	0.161845	-0.0887263	-0.309209	0.283303	-0.190671	0	0	-0.354926	0.0177451	-0.116481	0.161215	-0.415529	1.30562	0.509232	0.276845	0	0	-0.288787	-0.356052	-0.0166942	0.853753	1.55436	0	0
0.11	-0.305811	1.37504	-1.27473	0.862314	1.58924	0.936547	-0.459281	0.0670427	-0.188729	0.217105	-0.144423	0	0	0.153934	-0.082405	-0.312417	0.294377	-0.191068	0	0	-0.354122	0.0127962	-0.114539	0.155428	-0.415429	1.30553	0.505237	0.274107	0	0	-0.28939	-0.357289	-0.0157153	0.847501	1.55912	0	0
0.12	-0.289822	1.37528	-1.29131	0.863575	1.57711	0.936772	-0.459541	0.05923	-0.184271	0.243627	-0.150866	0	0	0.146848	-0.0761953	-0.316283	0.298801	-0.203873	0	0	-0.351124	0.00793653	-0.112506	0.148078	-0.414512	1.30423	0.499627	0.271251	0	0	-0.289871	-0.359589	-0.0131469	0.840129	1.56592	0	0
0.13	-0.275701	1.37795	-1.30412	0.865103	1.56482	0.937083	-0.455298	0.0513702	-0.181257	0.274351	-0.159834	0	0	0.14119	-0.0699241	-0.317519	0.299411	-0.227354	0	0	-0.345052	0.0035251	-0.111899	0.139761	-0.412202	1.3026	0.491388	0.268759	0	0	-0.289296	-0.360574	-0.0122282	0.831791	1.5708	0	0
0.14	-0.275575	1.39091	-1.30652	0.867227	1.55305	0.936856	-0.466055	0.0224217	-0.0391788	0.23471	-0.211683	0	0	0.14693	-0.0622603	-0.313624	0.299426	-0.252984	0	0	-0.328202	-7.2683e-05	-0.108155	0.132001	-0.409291	1.30266	0.477754	0.268065	0	0	-0.283816	-0.356676	-0.00989204	0.816667	1.5708	0	0
0.15	-0.267466	1.37718	-1.30164	0.869339	1.53935	0.938923	-0.466286	0.0507324	-0.199313	0.220646	-0.339927	0	0	0.120924	-0.0635179	-0.307139	0.297669	-0.273663	0	0	-0.335077	0.00418037	-0.119132	0.123003	-0.408866	1.30146	0.474953	0.267099	0	0	-0.288645	-0.357616	-0.0130228	0.815177	1.5708	0	0
0.16	-0.178178	1.38648	-1.38949	0.870629	1.52859	0.937915	-0.504864	-0.0236373	0.0342821	0.121284	-0.483449	0	0	0.121877	-0.0413304	-0.296092	0.304477	-0.288013	0	0	-0.326807	-0.0164105	-0.125994	0.117952	-0.41446	1.29636	0.488483	0.264853	0	0	-0.297297	-0.363875	-0.0198714	0.826965	1.5708	0	0
0.17	-0.257636	1.37345	-1.30261	0.874308	1.51512	0.94076	-0.474415	0.0293557	-0.137397	0.213025	-0.524747	0	0	0.101499	-0.0591213	-0.293904	0.310724	-0.295314	0	0	-0.330128	0.0077047	-0.127237	0.109571	-0.423255	1.29224	0.488014	0.264271	0	0	-0.291426	-0.353911	-0.0191861	0.810758	1.5708	0	0
0.18	-0.228837	1.37917	-1.32968	0.875655	1.50356	0.940642	-0.40391	0.0129032	-0.204823	0.475761	-0.303045	0	0	0.0998549	-0.0515135	-0.288386	0.322993	-0.292859	0	0	-0.321386	0.000428878	-0.130938	0.101861	-0.429732	1.28289	0.499341	0.264231	0	0	-0.297026	-0.356371	-0.0245723	0.81646	1.5708	0	0
0.19	-0.202538	1.3601	-1.34457	0.878277	1.49191	0.943712	-0.416947	0.00856099	-0.24113	0.440478	-0.46738	0	0	0.0676364	-0.0491843	-0.283089	0.325256	-0.292429	0	0	-0.339801	0.00343456	-0.142712	0.0987291	-0.437493	1.27526	0.511476	0.264748	0	0	-0.298716	-0.357883	-0.0295743	0.822329	1.5708	0	0
0.2	-0.171853	1.35873	-1.37163	0.880181	1.48109	0.94514	-0.392804	-0.0110997	-0.216203	0.525252	-0.484517	0	0	0.0549114	-0.0409822	-0.279499	0.330397	-0.287841	0	0	-0.340924	-0.0013669	-0.148487	0.0958865	-0.441004	1.27079	0.516463	0.264866	0	0	-0.298551	-0.359555	-0.0330074	0.825313	1.5708	0	0
0.21	-0.141431	1.37734	-1.40718	0.880899	1.47101	0.944551	-0.341238	-0.0331016	-0.102197	0.687487	-0.352495	0	0	0.0659452	-0.0300943	-0.278664	0.341829	-0.274474	0	0	-0.321273	-0.0129617	-0.146608	0.0914059	-0.439383	1.26453	0.513714	0.267644	0	0	-0.296989	-0.362127	-0.0340049	0.825277	1.5708	0	0
0.22	-0.11681	1.37187	-1.42833	0.882856	1.46086	0.94624	-0.317398	-0.0447343	-0.0893735	0.747968	-0.378469	0	0	0.0477743	-0.0242824	-0.280604	0.344327	-0.268813	0	0	-0.327115	-0.0150754	-0.154009	0.0926914	-0.444628	1.26262	0.521242	0.268938	0	0	-0.296511	-0.364899	-0.0354326	0.83178	1.5708	0	0
0.23	-0.091419	1.37235	-1.44993	0.884687	1.4503	0.947226	-0.28378	-0.0575594	-0.0911002	0.811079	-0.413472	0	0	0.0351073	-0.0178445	-0.284178	0.346695	-0.260422	0	0	-0.325268	-0.0182614	-0.16137	0.0909474	-0.45091	1.25843	0.530881	0.27075	0	0	-0.296734	-0.368559	-0.0344217	0.837765	1.57053	0	0
0.24	-0.0691695	1.37339	-1.46868	0.886469	1.43993	0.947988	-0.247518	-0.069703	-0.0967858	0.874507	-0.440964	0	0	0.0229987	-0.0121025	-0.286923	0.348227	-0.251425	0	0	-0.322694	-0.0206664	-0.16907	0.0898607	-0.458077	1.25372	0.541795	0.273112	0	0	-0.297256	-0.372653	-0.0327624	0.845218	1.56948	0	0
0.25	-0.0527227	1.37403	-1.48177	0.888127	1.42982	0.948702	-0.209988	-0.0804252	-0.108396	0.937354	-0.464659	0	0	0.0106087	-0.00818345	-0.289117	0.348767	-0.243235	0	0	-0.320765	-0.0216905	-0.177053	0.0896527	-0.465993	1.24783	0.553831	0.275142	0	0	-0.297207	-0.376687	-0.0311729	0.853405	1.56875	0	0
0.26	-0.0409004	1.36985	-1.488	0.890013	1.4197	0.949814	-0.171129	-0.0941111	-0.1693	1.00058	-0.499865	0	0	-0.00768368	-0.00587367	-0.290339	0.346272	-0.237671	0	0	-0.324009	-0.0204148	-0.18746	0.0905574	-0.47559	1.24245	0.568409	0.278319	0	0	-0.297526	-0.380782	-0.0304768	0.863784	1.56763	0	0
0.27	-0.0461487	1.37	-1.48246	0.891147	1.41029	0.950787	-0.132752	-0.0988775	-0.162948	1.05827	-0.50269	0	0	-0.0200996	-0.00718369	-0.291933	0.343064	-0.234249	0	0	-0.323918	-0.0176538	-0.19217	0.0939097	-0.481957	1.23997	0.576856	0.282228	0	0	-0.294835	-0.384023	-0.0302514	0.871654	1.56688	0	0
0.28	-0.0750795	1.37667	-1.45977	0.891195	1.4017	0.951565	-0.100313	-0.0876071	-0.05907	1.09358	-0.459996	0	0	-0.0233606	-0.0134241	-0.293747	0.341811	-0.229443	0	0	-0.318307	-0.0130559	-0.189186	0.0986874	-0.483206	1.23778	0.576463	0.288239	0	0	-0.2873	-0.386099	-0.0296474	0.874481	1.56961	0	0
0.29	-0.0950959	1.37497	-1.44102	0.89195	1.39265	0.95296	-0.0662526	-0.0866706	-0.057477	1.13967	-0.424389	0	0	-0.037904	-0.0178941	-0.295133	0.336827	-0.226742	0	0	-0.320467	-0.00758256	-0.192054	0.104178	-0.486971	1.23681	0.579993	0.292404	0	0	-0.281631	-0.388023	-0.0306245	0.880144	1.5708	0	0
0.3	-0.119246	1.37376	-1.41913	0.892614	1.38381	0.954363	-0.0326751	-0.0841537	-0.0536431	1.17876	-0.388006	0	0	-0.0517826	-0.0231657	-0.29943	0.332655	-0.223721	0	0	-0.322221	-0.00132301	-0.193296	0.110063	-0.490496	1.23624	0.582415	0.295597	0	0	-0.274211	-0.389625	-0.0312065	0.884812	1.5708	0	0
0.31	-0.146321	1.37233	-1.39507	0.8932	1.37512	0.955774	7.5079e-05	-0.0803773	-0.0485394	1.21129	-0.356972	0	0	-0.0657237	-0.0287263	-0.305064	0.329396	-0.219649	0	0	-0.32407	0.00563016	-0.193156	0.116264	-0.49386	1.23652	0.583748	0.298304	0	0	-0.265301	-0.390848	-0.0309451	0.888529	1.5708	0	0
0.32	-0.172411	1.36945	-1.37081	0.893843	1.36655	0.957177	0.0309674	-0.0764102	-0.0451946	1.2382	-0.339751	0	0	-0.0808299	-0.0339502	-0.309567	0.326677	-0.215477	0	0	-0.327326	0.0131546	-0.193911	0.123098	-0.497393	1.23821	0.585199	0.299954	0	0	-0.255894	-0.392944	-0.0291142	0.892947	1.5708	0	0
0.33	-0.199537	1.36795	-1.34484	0.894404	1.35786	0.958347	0.0623712	-0.07176	-0.0423201	1.25961	-0.324024	0	0	-0.0942631	-0.0394058	-0.313157	0.324266	-0.210118	0	0	-0.328554	0.0207968	-0.194264	0.128787	-0.500626	1.24008	0.585918	0.301287	0	0	-0.245912	-0.395834	-0.0254051	0.896938	1.5708	0	0
0.34	-0.227175	1.36756	-1.31778	0.894847	1.34908	0.959324	0.0936598	-0.0664335	-0.0399122	1.27515	-0.310223	0	0	-0.106035	-0.0452732	-0.315679	0.321997	-0.204817	0	0	-0.328084	0.0282301	-0.194419	0.133587	-0.502892	1.24214	0.585034	0.302442	0	0	-0.235663	-0.399131	-0.020756	0.901118	1.5708	0	0
0.35	-0.252546	1.36618	-1.2911	0.895374	1.34036	0.960267	0.122858	-0.0614284	-0.0397374	1.28561	-0.299612	0	0	-0.118104	-0.0512225	-0.315716	0.319087	-0.201047	0	0	-0.328535	0.0357895	-0.196056	0.138321	-0.504445	1.24441	0.583313	0.303425	0	0	-0.22562	-0.402737	-0.0168815	0.906855	1.5708	0	0
0.36	-0.276069	1.364	-1.26513	0.895923	1.33162	0.961152	0.150445	-0.0565644	-0.0410073	1.29244	-0.288524	0	0	-0.130466	-0.0574793	-0.314712	0.316073	-0.197753	0	0	-0.329572	0.043315	-0.198394	0.14254	-0.505468	1.24645	0.581155	0.304174	0	0	-0.216169	-0.406829	-0.0142125	0.914451	1.5708	0	0
